<svg width="21" height="20" viewBox="0 0 21 20" fill="none" xmlns="http://www.w3.org/2000/svg">
<g id="History">
<path id="Shape" d="M4.00004 1.99609L4.08992 2.00415C4.29401 2.04119 4.45494 2.20213 4.49199 2.40622L4.50004 2.49609L4.49938 4.70762C5.66432 3.38448 7.24848 2.46588 9.04216 2.13344C13.3865 1.32827 17.5609 4.1973 18.3661 8.54159C19.1712 12.8859 16.3022 17.0603 11.9579 17.8655C7.61362 18.6707 3.43909 15.8017 2.63392 11.4574C2.54721 10.9895 2.47637 10.1379 2.50418 9.47828C2.51582 9.20238 2.74891 8.98816 3.0248 8.99979C3.3007 9.01142 3.51493 9.24451 3.5033 9.52041C3.47884 10.1003 3.5435 10.8776 3.61718 11.2751C4.32169 15.0764 7.97442 17.5868 11.7757 16.8823C15.5769 16.1777 18.0873 12.5251 17.3828 8.72383C16.6783 4.92257 13.0256 2.41217 9.22439 3.11669C7.38523 3.45756 5.79914 4.50146 4.75844 5.99497L7.49805 5.99609L7.58792 6.00415C7.82117 6.04649 7.99805 6.25063 7.99805 6.49609C7.99805 6.74155 7.82117 6.9457 7.58792 6.98804L7.49805 6.99609H4.00004L3.91017 6.98804C3.70607 6.95099 3.54514 6.79006 3.5081 6.58597L3.50004 6.49609V2.49609L3.5081 2.40622C3.54514 2.20213 3.70607 2.04119 3.91017 2.00415L4.00004 1.99609ZM10 5.99609L10.0899 6.00415C10.294 6.04119 10.4549 6.20213 10.492 6.40622L10.5 6.49609V10H12.5L12.5899 10.0081C12.8232 10.0504 13 10.2545 13 10.5C13 10.7455 12.8232 10.9496 12.5899 10.9919L12.5 11H10L9.91017 10.9919C9.70607 10.9549 9.54514 10.794 9.5081 10.5899L9.50004 10.5V6.49609L9.5081 6.40622C9.54514 6.20213 9.70607 6.04119 9.91017 6.00415L10 5.99609Z" fill="#484644"/>
</g>
</svg>
