<svg width="21" height="20" viewBox="0 0 21 20" fill="none" xmlns="http://www.w3.org/2000/svg">
<g id="Home">
<path id="Shape" d="M11.5025 2.38811C10.9323 1.87584 10.0677 1.87584 9.4975 2.38811L3.9975 7.32965C3.68086 7.61414 3.5 8.01977 3.5 8.44544V15.4996C3.5 16.328 4.17157 16.9996 5 16.9996H7C7.82843 16.9996 8.5 16.328 8.5 15.4996V11.4996C8.5 11.2234 8.72386 10.9996 9 10.9996H12C12.2761 10.9996 12.5 11.2234 12.5 11.4996V15.4996C12.5 16.328 13.1716 16.9996 14 16.9996H16C16.8284 16.9996 17.5 16.328 17.5 15.4996V8.44544C17.5 8.01977 17.3191 7.61414 17.0025 7.32965L11.5025 2.38811Z" fill="#263985"/>
</g>
</svg>
